<mxfile host="Electron" modified="2023-08-10T19:27:49.143Z" agent="Mozilla/5.0 (X11; Linux x86_64) AppleWebKit/537.36 (KHTML, like Gecko) draw.io/21.6.5 Chrome/114.0.5735.243 Electron/25.3.1 Safari/537.36" etag="i3aNo0J1w_ChpWzIdnPs" version="21.6.5" type="device">
  <diagram name="Page-1" id="W8m5agjNQlrbBDoFUkKX">
    <mxGraphModel dx="830" dy="479" grid="1" gridSize="10" guides="1" tooltips="1" connect="1" arrows="1" fold="1" page="1" pageScale="1" pageWidth="850" pageHeight="1100" math="0" shadow="0">
      <root>
        <mxCell id="0" />
        <mxCell id="1" parent="0" />
        <mxCell id="PM6qEsR-Npl-c_q6q-7t-11" style="edgeStyle=orthogonalEdgeStyle;rounded=0;orthogonalLoop=1;jettySize=auto;html=1;fillColor=#d5e8d4;strokeColor=#82b366;" edge="1" parent="1" source="PM6qEsR-Npl-c_q6q-7t-1" target="PM6qEsR-Npl-c_q6q-7t-3">
          <mxGeometry relative="1" as="geometry" />
        </mxCell>
        <mxCell id="PM6qEsR-Npl-c_q6q-7t-13" value="&lt;b&gt;git add&lt;/b&gt;" style="edgeLabel;html=1;align=center;verticalAlign=middle;resizable=0;points=[];" vertex="1" connectable="0" parent="PM6qEsR-Npl-c_q6q-7t-11">
          <mxGeometry x="0.04" y="-1" relative="1" as="geometry">
            <mxPoint as="offset" />
          </mxGeometry>
        </mxCell>
        <mxCell id="PM6qEsR-Npl-c_q6q-7t-1" value="Work &lt;br&gt;directory" style="shape=cylinder3;whiteSpace=wrap;html=1;boundedLbl=1;backgroundOutline=1;size=15;fillColor=#dae8fc;strokeColor=#6c8ebf;" vertex="1" parent="1">
          <mxGeometry x="40" y="430" width="90" height="130" as="geometry" />
        </mxCell>
        <mxCell id="PM6qEsR-Npl-c_q6q-7t-12" style="edgeStyle=orthogonalEdgeStyle;rounded=0;orthogonalLoop=1;jettySize=auto;html=1;entryX=0;entryY=0.5;entryDx=0;entryDy=0;entryPerimeter=0;fillColor=#f8cecc;strokeColor=#b85450;" edge="1" parent="1" source="PM6qEsR-Npl-c_q6q-7t-3" target="PM6qEsR-Npl-c_q6q-7t-4">
          <mxGeometry relative="1" as="geometry" />
        </mxCell>
        <mxCell id="PM6qEsR-Npl-c_q6q-7t-14" value="&lt;b&gt;git commit&lt;/b&gt;" style="edgeLabel;html=1;align=center;verticalAlign=middle;resizable=0;points=[];" vertex="1" connectable="0" parent="PM6qEsR-Npl-c_q6q-7t-12">
          <mxGeometry x="-0.04" y="-1" relative="1" as="geometry">
            <mxPoint as="offset" />
          </mxGeometry>
        </mxCell>
        <mxCell id="PM6qEsR-Npl-c_q6q-7t-3" value="Staging&lt;br&gt;area" style="shape=cylinder3;whiteSpace=wrap;html=1;boundedLbl=1;backgroundOutline=1;size=15;fillColor=#d5e8d4;strokeColor=#82b366;" vertex="1" parent="1">
          <mxGeometry x="230" y="430" width="90" height="130" as="geometry" />
        </mxCell>
        <mxCell id="PM6qEsR-Npl-c_q6q-7t-15" style="edgeStyle=orthogonalEdgeStyle;rounded=0;orthogonalLoop=1;jettySize=auto;html=1;fillColor=#f5f5f5;strokeColor=#666666;" edge="1" parent="1">
          <mxGeometry relative="1" as="geometry">
            <mxPoint x="515" y="460" as="sourcePoint" />
            <mxPoint x="630" y="460" as="targetPoint" />
          </mxGeometry>
        </mxCell>
        <mxCell id="PM6qEsR-Npl-c_q6q-7t-16" value="&lt;b&gt;git push&lt;/b&gt;" style="edgeLabel;html=1;align=center;verticalAlign=middle;resizable=0;points=[];" vertex="1" connectable="0" parent="PM6qEsR-Npl-c_q6q-7t-15">
          <mxGeometry x="0.1747" y="-1" relative="1" as="geometry">
            <mxPoint as="offset" />
          </mxGeometry>
        </mxCell>
        <mxCell id="PM6qEsR-Npl-c_q6q-7t-4" value="Local&amp;nbsp;&lt;br&gt;repo" style="shape=cylinder3;whiteSpace=wrap;html=1;boundedLbl=1;backgroundOutline=1;size=15;fillColor=#f8cecc;strokeColor=#b85450;" vertex="1" parent="1">
          <mxGeometry x="425" y="430" width="90" height="130" as="geometry" />
        </mxCell>
        <mxCell id="PM6qEsR-Npl-c_q6q-7t-21" style="edgeStyle=orthogonalEdgeStyle;rounded=0;orthogonalLoop=1;jettySize=auto;html=1;fillColor=#f8cecc;strokeColor=#b85450;" edge="1" parent="1">
          <mxGeometry relative="1" as="geometry">
            <mxPoint x="630" y="530" as="sourcePoint" />
            <mxPoint x="515" y="530" as="targetPoint" />
          </mxGeometry>
        </mxCell>
        <mxCell id="PM6qEsR-Npl-c_q6q-7t-22" value="&lt;b&gt;git pull&lt;/b&gt;" style="edgeLabel;html=1;align=center;verticalAlign=middle;resizable=0;points=[];" vertex="1" connectable="0" parent="PM6qEsR-Npl-c_q6q-7t-21">
          <mxGeometry x="-0.1026" relative="1" as="geometry">
            <mxPoint as="offset" />
          </mxGeometry>
        </mxCell>
        <mxCell id="PM6qEsR-Npl-c_q6q-7t-5" value="Remote&lt;br&gt;repo" style="shape=cylinder3;whiteSpace=wrap;html=1;boundedLbl=1;backgroundOutline=1;size=15;fillColor=#f5f5f5;strokeColor=#666666;fontColor=#333333;" vertex="1" parent="1">
          <mxGeometry x="630" y="430" width="90" height="130" as="geometry" />
        </mxCell>
        <mxCell id="PM6qEsR-Npl-c_q6q-7t-17" value="" style="dashed=0;outlineConnect=0;html=1;align=center;labelPosition=center;verticalLabelPosition=bottom;verticalAlign=top;shape=mxgraph.weblogos.github" vertex="1" parent="1">
          <mxGeometry x="651.88" y="400" width="46.25" height="50" as="geometry" />
        </mxCell>
        <mxCell id="PM6qEsR-Npl-c_q6q-7t-18" value="" style="image;html=1;image=img/lib/clip_art/general/Full_Folder_128x128.png" vertex="1" parent="1">
          <mxGeometry x="57.5" y="410" width="55" height="45" as="geometry" />
        </mxCell>
        <mxCell id="PM6qEsR-Npl-c_q6q-7t-19" value="" style="sketch=0;outlineConnect=0;fontColor=#232F3E;gradientColor=none;fillColor=#232F3D;strokeColor=none;dashed=0;verticalLabelPosition=bottom;verticalAlign=top;align=center;html=1;fontSize=12;fontStyle=0;aspect=fixed;pointerEvents=1;shape=mxgraph.aws4.git_repository;" vertex="1" parent="1">
          <mxGeometry x="455" y="413" width="30" height="39" as="geometry" />
        </mxCell>
        <mxCell id="PM6qEsR-Npl-c_q6q-7t-20" value="" style="sketch=0;outlineConnect=0;fontColor=#232F3E;gradientColor=none;fillColor=#232F3D;strokeColor=none;dashed=0;verticalLabelPosition=bottom;verticalAlign=top;align=center;html=1;fontSize=12;fontStyle=0;aspect=fixed;pointerEvents=1;shape=mxgraph.aws4.internet_alt2;" vertex="1" parent="1">
          <mxGeometry x="560" y="481" width="28" height="28" as="geometry" />
        </mxCell>
      </root>
    </mxGraphModel>
  </diagram>
</mxfile>
